<mxfile host="app.diagrams.net" modified="2023-09-25T01:50:05.383Z" agent="Mozilla/5.0 (Windows NT 10.0; Win64; x64) AppleWebKit/537.36 (KHTML, like Gecko) Chrome/116.0.0.0 Safari/537.36" etag="lIXMLeBrn39m4pUl4nVE" version="21.8.2" type="google">
  <diagram name="Page-1" id="2YBvvXClWsGukQMizWep">
    <mxGraphModel grid="1" page="1" gridSize="10" guides="1" tooltips="1" connect="1" arrows="1" fold="1" pageScale="1" pageWidth="1100" pageHeight="850" math="0" shadow="0">
      <root>
        <mxCell id="0" />
        <mxCell id="1" parent="0" />
        <mxCell id="4Vntxdri3GSstWuC-GcN-1" value="Web Browser Application" style="shape=umlLifeline;perimeter=lifelinePerimeter;whiteSpace=wrap;html=1;container=0;dropTarget=0;collapsible=0;recursiveResize=0;outlineConnect=0;portConstraint=eastwest;newEdgeStyle={&quot;edgeStyle&quot;:&quot;elbowEdgeStyle&quot;,&quot;elbow&quot;:&quot;vertical&quot;,&quot;curved&quot;:0,&quot;rounded&quot;:0};" vertex="1" parent="1">
          <mxGeometry x="320" y="120" width="130" height="700" as="geometry" />
        </mxCell>
        <mxCell id="pMgTmdvW3vETUX-b-KQn-6" value="" style="html=1;points=[[0,0,0,0,5],[0,1,0,0,-5],[1,0,0,0,5],[1,1,0,0,-5]];perimeter=orthogonalPerimeter;outlineConnect=0;targetShapes=umlLifeline;portConstraint=eastwest;newEdgeStyle={&quot;curved&quot;:0,&quot;rounded&quot;:0};fontSize=16;" vertex="1" parent="4Vntxdri3GSstWuC-GcN-1">
          <mxGeometry x="57.5" y="250" width="15" height="160" as="geometry" />
        </mxCell>
        <mxCell id="pMgTmdvW3vETUX-b-KQn-42" value="" style="html=1;points=[[0,0,0,0,5],[0,1,0,0,-5],[1,0,0,0,5],[1,1,0,0,-5]];perimeter=orthogonalPerimeter;outlineConnect=0;targetShapes=umlLifeline;portConstraint=eastwest;newEdgeStyle={&quot;curved&quot;:0,&quot;rounded&quot;:0};fontSize=16;" vertex="1" parent="4Vntxdri3GSstWuC-GcN-1">
          <mxGeometry x="57.5" y="80" width="15" height="100" as="geometry" />
        </mxCell>
        <mxCell id="pMgTmdvW3vETUX-b-KQn-44" value="" style="html=1;points=[[0,0,0,0,5],[0,1,0,0,-5],[1,0,0,0,5],[1,1,0,0,-5]];perimeter=orthogonalPerimeter;outlineConnect=0;targetShapes=umlLifeline;portConstraint=eastwest;newEdgeStyle={&quot;curved&quot;:0,&quot;rounded&quot;:0};fontSize=16;" vertex="1" parent="4Vntxdri3GSstWuC-GcN-1">
          <mxGeometry x="57.5" y="490" width="15" height="170" as="geometry" />
        </mxCell>
        <mxCell id="BVJfjVFFw96yO_L14k2j-7" value="" style="endArrow=none;dashed=1;html=1;rounded=0;fontSize=12;startSize=8;endSize=8;curved=1;" edge="1" parent="1" source="pMgTmdvW3vETUX-b-KQn-4">
          <mxGeometry width="50" height="50" relative="1" as="geometry">
            <mxPoint x="105" y="670" as="sourcePoint" />
            <mxPoint x="105" y="180" as="targetPoint" />
          </mxGeometry>
        </mxCell>
        <mxCell id="BVJfjVFFw96yO_L14k2j-8" value="Corporate Web Server" style="shape=umlLifeline;perimeter=lifelinePerimeter;whiteSpace=wrap;html=1;container=0;dropTarget=0;collapsible=0;recursiveResize=0;outlineConnect=0;portConstraint=eastwest;newEdgeStyle={&quot;edgeStyle&quot;:&quot;elbowEdgeStyle&quot;,&quot;elbow&quot;:&quot;vertical&quot;,&quot;curved&quot;:0,&quot;rounded&quot;:0};" vertex="1" parent="1">
          <mxGeometry x="610" y="120" width="130" height="690" as="geometry" />
        </mxCell>
        <mxCell id="pMgTmdvW3vETUX-b-KQn-7" value="" style="html=1;points=[[0,0,0,0,5],[0,1,0,0,-5],[1,0,0,0,5],[1,1,0,0,-5]];perimeter=orthogonalPerimeter;outlineConnect=0;targetShapes=umlLifeline;portConstraint=eastwest;newEdgeStyle={&quot;curved&quot;:0,&quot;rounded&quot;:0};fontSize=16;" vertex="1" parent="BVJfjVFFw96yO_L14k2j-8">
          <mxGeometry x="57.5" y="490" width="15" height="150" as="geometry" />
        </mxCell>
        <mxCell id="pMgTmdvW3vETUX-b-KQn-40" value="" style="html=1;points=[[0,0,0,0,5],[0,1,0,0,-5],[1,0,0,0,5],[1,1,0,0,-5]];perimeter=orthogonalPerimeter;outlineConnect=0;targetShapes=umlLifeline;portConstraint=eastwest;newEdgeStyle={&quot;curved&quot;:0,&quot;rounded&quot;:0};fontSize=16;" vertex="1" parent="BVJfjVFFw96yO_L14k2j-8">
          <mxGeometry x="57.5" y="90" width="15" height="70" as="geometry" />
        </mxCell>
        <mxCell id="pMgTmdvW3vETUX-b-KQn-52" value="" style="html=1;points=[[0,0,0,0,5],[0,1,0,0,-5],[1,0,0,0,5],[1,1,0,0,-5]];perimeter=orthogonalPerimeter;outlineConnect=0;targetShapes=umlLifeline;portConstraint=eastwest;newEdgeStyle={&quot;curved&quot;:0,&quot;rounded&quot;:0};fontSize=16;" vertex="1" parent="BVJfjVFFw96yO_L14k2j-8">
          <mxGeometry x="57.5" y="260" width="15" height="130" as="geometry" />
        </mxCell>
        <mxCell id="BVJfjVFFw96yO_L14k2j-9" value="Time Clock Database" style="shape=umlLifeline;perimeter=lifelinePerimeter;whiteSpace=wrap;html=1;container=0;dropTarget=0;collapsible=0;recursiveResize=0;outlineConnect=0;portConstraint=eastwest;newEdgeStyle={&quot;edgeStyle&quot;:&quot;elbowEdgeStyle&quot;,&quot;elbow&quot;:&quot;vertical&quot;,&quot;curved&quot;:0,&quot;rounded&quot;:0};" vertex="1" parent="1">
          <mxGeometry x="900" y="120" width="130" height="690" as="geometry" />
        </mxCell>
        <mxCell id="pMgTmdvW3vETUX-b-KQn-8" value="" style="html=1;points=[[0,0,0,0,5],[0,1,0,0,-5],[1,0,0,0,5],[1,1,0,0,-5]];perimeter=orthogonalPerimeter;outlineConnect=0;targetShapes=umlLifeline;portConstraint=eastwest;newEdgeStyle={&quot;curved&quot;:0,&quot;rounded&quot;:0};fontSize=16;" vertex="1" parent="BVJfjVFFw96yO_L14k2j-9">
          <mxGeometry x="57.5" y="305" width="15" height="70" as="geometry" />
        </mxCell>
        <mxCell id="pMgTmdvW3vETUX-b-KQn-53" value="" style="html=1;points=[[0,0,0,0,5],[0,1,0,0,-5],[1,0,0,0,5],[1,1,0,0,-5]];perimeter=orthogonalPerimeter;outlineConnect=0;targetShapes=umlLifeline;portConstraint=eastwest;newEdgeStyle={&quot;curved&quot;:0,&quot;rounded&quot;:0};fontSize=16;" vertex="1" parent="BVJfjVFFw96yO_L14k2j-9">
          <mxGeometry x="57.5" y="510" width="15" height="70" as="geometry" />
        </mxCell>
        <mxCell id="BVJfjVFFw96yO_L14k2j-21" value="Actor" style="shape=umlActor;verticalLabelPosition=bottom;verticalAlign=top;html=1;fontSize=16;" vertex="1" parent="1">
          <mxGeometry x="70" y="30" width="70" height="120" as="geometry" />
        </mxCell>
        <mxCell id="rYfZbtQRiRFGeliZQWfu-1" value="Name: Anna Zheng&lt;span style=&quot;white-space: pre;&quot;&gt;&#x9;&lt;/span&gt;&lt;br&gt;UCFID: 5124034&lt;br&gt;" style="html=1;whiteSpace=wrap;" vertex="1" parent="1">
          <mxGeometry x="875" y="30" width="180" height="60" as="geometry" />
        </mxCell>
        <mxCell id="pMgTmdvW3vETUX-b-KQn-5" value="" style="endArrow=none;dashed=1;html=1;rounded=0;fontSize=12;startSize=8;endSize=8;curved=1;" edge="1" parent="1" target="pMgTmdvW3vETUX-b-KQn-4">
          <mxGeometry width="50" height="50" relative="1" as="geometry">
            <mxPoint x="105" y="820" as="sourcePoint" />
            <mxPoint x="104.5" y="190" as="targetPoint" />
          </mxGeometry>
        </mxCell>
        <mxCell id="pMgTmdvW3vETUX-b-KQn-4" value="" style="html=1;points=[[0,0,0,0,5],[0,1,0,0,-5],[1,0,0,0,5],[1,1,0,0,-5]];perimeter=orthogonalPerimeter;outlineConnect=0;targetShapes=umlLifeline;portConstraint=eastwest;newEdgeStyle={&quot;curved&quot;:0,&quot;rounded&quot;:0};fontSize=16;" vertex="1" parent="1">
          <mxGeometry x="97.5" y="200" width="15" height="580" as="geometry" />
        </mxCell>
        <mxCell id="pMgTmdvW3vETUX-b-KQn-13" value="Credentials or Failed login" style="html=1;verticalAlign=bottom;endArrow=open;dashed=1;endSize=8;curved=0;rounded=0;fontSize=12;" edge="1" parent="1">
          <mxGeometry relative="1" as="geometry">
            <mxPoint x="660" y="260" as="sourcePoint" />
            <mxPoint x="400" y="260" as="targetPoint" />
          </mxGeometry>
        </mxCell>
        <mxCell id="pMgTmdvW3vETUX-b-KQn-14" value="login()" style="html=1;verticalAlign=bottom;endArrow=block;curved=0;rounded=0;fontSize=12;startSize=8;endSize=8;" edge="1" parent="1">
          <mxGeometry width="80" relative="1" as="geometry">
            <mxPoint x="120" y="220" as="sourcePoint" />
            <mxPoint x="374.5" y="220" as="targetPoint" />
          </mxGeometry>
        </mxCell>
        <mxCell id="pMgTmdvW3vETUX-b-KQn-16" value="authenticateUser()" style="html=1;verticalAlign=bottom;endArrow=block;curved=0;rounded=0;fontSize=12;startSize=8;endSize=8;" edge="1" parent="1">
          <mxGeometry width="80" relative="1" as="geometry">
            <mxPoint x="400" y="230" as="sourcePoint" />
            <mxPoint x="660" y="230" as="targetPoint" />
          </mxGeometry>
        </mxCell>
        <mxCell id="pMgTmdvW3vETUX-b-KQn-18" value="Access granted" style="html=1;verticalAlign=bottom;endArrow=open;dashed=1;endSize=8;curved=0;rounded=0;fontSize=12;" edge="1" parent="1">
          <mxGeometry relative="1" as="geometry">
            <mxPoint x="372.5" y="280" as="sourcePoint" />
            <mxPoint x="120" y="280" as="targetPoint" />
          </mxGeometry>
        </mxCell>
        <mxCell id="pMgTmdvW3vETUX-b-KQn-21" value="&lt;font style=&quot;font-size: 11px;&quot;&gt;If failed login, &lt;br&gt;end here&amp;nbsp;&lt;/font&gt;" style="shape=note;whiteSpace=wrap;html=1;backgroundOutline=1;darkOpacity=0.05;fontSize=16;" vertex="1" parent="1">
          <mxGeometry x="170" y="300" width="160" height="40" as="geometry" />
        </mxCell>
        <mxCell id="pMgTmdvW3vETUX-b-KQn-24" value="" style="endArrow=none;dashed=1;html=1;dashPattern=1 3;strokeWidth=2;rounded=0;fontSize=12;startSize=8;endSize=8;curved=1;exitX=0;exitY=0;exitDx=110;exitDy=0;exitPerimeter=0;" edge="1" parent="1" source="pMgTmdvW3vETUX-b-KQn-21">
          <mxGeometry width="50" height="50" relative="1" as="geometry">
            <mxPoint x="330" y="350" as="sourcePoint" />
            <mxPoint x="370" y="280" as="targetPoint" />
          </mxGeometry>
        </mxCell>
        <mxCell id="pMgTmdvW3vETUX-b-KQn-25" value="Enter time clock data&amp;nbsp;" style="html=1;verticalAlign=bottom;endArrow=block;curved=0;rounded=0;fontSize=12;startSize=8;endSize=8;" edge="1" parent="1">
          <mxGeometry x="-0.002" width="80" relative="1" as="geometry">
            <mxPoint x="120" y="390" as="sourcePoint" />
            <mxPoint x="374.5" y="390" as="targetPoint" />
            <mxPoint as="offset" />
          </mxGeometry>
        </mxCell>
        <mxCell id="pMgTmdvW3vETUX-b-KQn-28" value="takesStartTime()" style="html=1;verticalAlign=bottom;endArrow=block;curved=0;rounded=0;fontSize=12;startSize=8;endSize=8;" edge="1" parent="1">
          <mxGeometry width="80" relative="1" as="geometry">
            <mxPoint x="400" y="410" as="sourcePoint" />
            <mxPoint x="660" y="410" as="targetPoint" />
          </mxGeometry>
        </mxCell>
        <mxCell id="pMgTmdvW3vETUX-b-KQn-30" value="takesEndime()" style="html=1;verticalAlign=bottom;endArrow=block;curved=0;rounded=0;fontSize=12;startSize=8;endSize=8;" edge="1" parent="1">
          <mxGeometry width="80" relative="1" as="geometry">
            <mxPoint x="400" y="430" as="sourcePoint" />
            <mxPoint x="660" y="430" as="targetPoint" />
          </mxGeometry>
        </mxCell>
        <mxCell id="pMgTmdvW3vETUX-b-KQn-32" value="validateStartAndStopTime()" style="html=1;verticalAlign=bottom;endArrow=block;curved=0;rounded=0;fontSize=12;startSize=8;endSize=8;" edge="1" parent="1">
          <mxGeometry width="80" relative="1" as="geometry">
            <mxPoint x="690" y="450" as="sourcePoint" />
            <mxPoint x="950" y="450" as="targetPoint" />
          </mxGeometry>
        </mxCell>
        <mxCell id="pMgTmdvW3vETUX-b-KQn-34" value="createTimeDataRecord()" style="html=1;verticalAlign=bottom;endArrow=block;curved=0;rounded=0;fontSize=12;startSize=8;endSize=8;" edge="1" parent="1">
          <mxGeometry width="80" relative="1" as="geometry">
            <mxPoint x="690" y="469.5" as="sourcePoint" />
            <mxPoint x="950" y="469.5" as="targetPoint" />
          </mxGeometry>
        </mxCell>
        <mxCell id="pMgTmdvW3vETUX-b-KQn-35" value="Successful or Invalid time entry" style="html=1;verticalAlign=bottom;endArrow=open;dashed=1;endSize=8;curved=0;rounded=0;fontSize=12;" edge="1" parent="1">
          <mxGeometry relative="1" as="geometry">
            <mxPoint x="660" y="489.5" as="sourcePoint" />
            <mxPoint x="400" y="489.5" as="targetPoint" />
          </mxGeometry>
        </mxCell>
        <mxCell id="pMgTmdvW3vETUX-b-KQn-36" value="Confirmation" style="html=1;verticalAlign=bottom;endArrow=open;dashed=1;endSize=8;curved=0;rounded=0;fontSize=12;" edge="1" parent="1">
          <mxGeometry relative="1" as="geometry">
            <mxPoint x="372.5" y="500" as="sourcePoint" />
            <mxPoint x="112.5" y="500" as="targetPoint" />
            <mxPoint as="offset" />
          </mxGeometry>
        </mxCell>
        <mxCell id="pMgTmdvW3vETUX-b-KQn-38" value="&lt;span style=&quot;font-size: 11px;&quot;&gt;If invalid, let them know&lt;br&gt;&amp;nbsp;and ask to re-enter&lt;/span&gt;" style="shape=note;whiteSpace=wrap;html=1;backgroundOutline=1;darkOpacity=0.05;fontSize=16;" vertex="1" parent="1">
          <mxGeometry x="150" y="520" width="190" height="40" as="geometry" />
        </mxCell>
        <mxCell id="pMgTmdvW3vETUX-b-KQn-39" value="" style="endArrow=none;dashed=1;html=1;dashPattern=1 3;strokeWidth=2;rounded=0;fontSize=12;startSize=8;endSize=8;curved=1;exitX=0;exitY=0;exitDx=110;exitDy=0;exitPerimeter=0;entryX=-0.367;entryY=0.171;entryDx=0;entryDy=0;entryPerimeter=0;" edge="1" parent="1">
          <mxGeometry width="50" height="50" relative="1" as="geometry">
            <mxPoint x="280" y="520" as="sourcePoint" />
            <mxPoint x="372" y="502" as="targetPoint" />
          </mxGeometry>
        </mxCell>
        <mxCell id="pMgTmdvW3vETUX-b-KQn-43" value="Weekly time reporting" style="html=1;verticalAlign=bottom;endArrow=block;curved=0;rounded=0;fontSize=12;startSize=8;endSize=8;" edge="1" parent="1">
          <mxGeometry x="-0.002" width="80" relative="1" as="geometry">
            <mxPoint x="117.75" y="620" as="sourcePoint" />
            <mxPoint x="372.25" y="620" as="targetPoint" />
            <mxPoint as="offset" />
          </mxGeometry>
        </mxCell>
        <mxCell id="pMgTmdvW3vETUX-b-KQn-45" value="Weekly time reporting request" style="html=1;verticalAlign=bottom;endArrow=block;curved=0;rounded=0;fontSize=12;startSize=8;endSize=8;" edge="1" parent="1">
          <mxGeometry width="80" relative="1" as="geometry">
            <mxPoint x="400" y="640" as="sourcePoint" />
            <mxPoint x="660" y="640" as="targetPoint" />
            <mxPoint as="offset" />
          </mxGeometry>
        </mxCell>
        <mxCell id="pMgTmdvW3vETUX-b-KQn-47" value="validateStartAndStopDates()" style="html=1;verticalAlign=bottom;endArrow=block;curved=0;rounded=0;fontSize=12;startSize=8;endSize=8;" edge="1" parent="1">
          <mxGeometry width="80" relative="1" as="geometry">
            <mxPoint x="690" y="660" as="sourcePoint" />
            <mxPoint x="950" y="660" as="targetPoint" />
            <mxPoint as="offset" />
          </mxGeometry>
        </mxCell>
        <mxCell id="pMgTmdvW3vETUX-b-KQn-48" value="retrieveTimeDataRecords()" style="html=1;verticalAlign=bottom;endArrow=block;curved=0;rounded=0;fontSize=12;startSize=8;endSize=8;" edge="1" parent="1">
          <mxGeometry width="80" relative="1" as="geometry">
            <mxPoint x="690" y="680" as="sourcePoint" />
            <mxPoint x="950" y="680" as="targetPoint" />
            <mxPoint as="offset" />
          </mxGeometry>
        </mxCell>
        <mxCell id="pMgTmdvW3vETUX-b-KQn-49" value="Time data record" style="html=1;verticalAlign=bottom;endArrow=open;dashed=1;endSize=8;curved=0;rounded=0;fontSize=12;" edge="1" parent="1">
          <mxGeometry relative="1" as="geometry">
            <mxPoint x="660" y="730" as="sourcePoint" />
            <mxPoint x="400" y="730" as="targetPoint" />
          </mxGeometry>
        </mxCell>
        <mxCell id="pMgTmdvW3vETUX-b-KQn-50" value="Display weekly time report" style="html=1;verticalAlign=bottom;endArrow=open;dashed=1;endSize=8;curved=0;rounded=0;fontSize=12;" edge="1" parent="1">
          <mxGeometry relative="1" as="geometry">
            <mxPoint x="375" y="760" as="sourcePoint" />
            <mxPoint x="115" y="760" as="targetPoint" />
          </mxGeometry>
        </mxCell>
        <mxCell id="pMgTmdvW3vETUX-b-KQn-51" value="currentDayTimeStatus()" style="html=1;verticalAlign=bottom;endArrow=open;dashed=1;endSize=8;curved=0;rounded=0;fontSize=12;" edge="1" parent="1">
          <mxGeometry relative="1" as="geometry">
            <mxPoint x="660" y="710" as="sourcePoint" />
            <mxPoint x="400" y="710" as="targetPoint" />
          </mxGeometry>
        </mxCell>
      </root>
    </mxGraphModel>
  </diagram>
</mxfile>
